<?xml version="1.0" encoding="UTF-8" standalone="no"?>
<svg
   xmlns:dc="http://purl.org/dc/elements/1.1/"
   xmlns:cc="http://creativecommons.org/ns#"
   xmlns:rdf="http://www.w3.org/1999/02/22-rdf-syntax-ns#"
   xmlns:svg="http://www.w3.org/2000/svg"
   xmlns="http://www.w3.org/2000/svg"
   xmlns:sodipodi="http://sodipodi.sourceforge.net/DTD/sodipodi-0.dtd"
   xmlns:inkscape="http://www.inkscape.org/namespaces/inkscape"
   inkscape:export-ydpi="576"
   inkscape:export-xdpi="576"
   inkscape:export-filename="E:\Project\Update\026 - Science And Technology\5 - Send\3 - Flat\26 - Science And Tech.png"
   sodipodi:docname="26 - Science And Tech.svg"
   inkscape:version="1.0 (4035a4fb49, 2020-05-01)"
   id="svg831"
   version="1.1"
   viewBox="0 0 22.577778 22.577778"
   height="64pt"
   width="64pt">
  <defs
     id="defs825">
    <pattern
       y="0"
       x="0"
       height="6"
       width="6"
       patternUnits="userSpaceOnUse"
       id="EMFhbasepattern" />
    <pattern
       y="0"
       x="0"
       height="6"
       width="6"
       patternUnits="userSpaceOnUse"
       id="EMFhbasepattern-9" />
    <pattern
       y="0"
       x="0"
       height="6"
       width="6"
       patternUnits="userSpaceOnUse"
       id="EMFhbasepattern-0" />
    <pattern
       y="0"
       x="0"
       height="6"
       width="6"
       patternUnits="userSpaceOnUse"
       id="EMFhbasepattern-7" />
    <pattern
       y="0"
       x="0"
       height="6"
       width="6"
       patternUnits="userSpaceOnUse"
       id="EMFhbasepattern-2" />
    <pattern
       y="0"
       x="0"
       height="6"
       width="6"
       patternUnits="userSpaceOnUse"
       id="EMFhbasepattern-98" />
    <pattern
       y="0"
       x="0"
       height="6"
       width="6"
       patternUnits="userSpaceOnUse"
       id="EMFhbasepattern-6" />
    <pattern
       y="0"
       x="0"
       height="6"
       width="6"
       patternUnits="userSpaceOnUse"
       id="EMFhbasepattern-01" />
    <pattern
       y="0"
       x="0"
       height="6"
       width="6"
       patternUnits="userSpaceOnUse"
       id="EMFhbasepattern-07" />
    <pattern
       y="0"
       x="0"
       height="6"
       width="6"
       patternUnits="userSpaceOnUse"
       id="EMFhbasepattern-8" />
    <pattern
       y="0"
       x="0"
       height="6"
       width="6"
       patternUnits="userSpaceOnUse"
       id="EMFhbasepattern-4" />
    <pattern
       y="0"
       x="0"
       height="6"
       width="6"
       patternUnits="userSpaceOnUse"
       id="EMFhbasepattern-40" />
    <pattern
       y="0"
       x="0"
       height="6"
       width="6"
       patternUnits="userSpaceOnUse"
       id="EMFhbasepattern-08" />
    <pattern
       y="0"
       x="0"
       height="6"
       width="6"
       patternUnits="userSpaceOnUse"
       id="EMFhbasepattern-04" />
    <pattern
       y="0"
       x="0"
       height="6"
       width="6"
       patternUnits="userSpaceOnUse"
       id="EMFhbasepattern-014" />
    <pattern
       y="0"
       x="0"
       height="6"
       width="6"
       patternUnits="userSpaceOnUse"
       id="EMFhbasepattern-27" />
    <pattern
       y="0"
       x="0"
       height="6"
       width="6"
       patternUnits="userSpaceOnUse"
       id="EMFhbasepattern-09" />
    <pattern
       y="0"
       x="0"
       height="6"
       width="6"
       patternUnits="userSpaceOnUse"
       id="EMFhbasepattern-5" />
    <pattern
       y="0"
       x="0"
       height="6"
       width="6"
       patternUnits="userSpaceOnUse"
       id="EMFhbasepattern-018" />
  </defs>
  <sodipodi:namedview
     inkscape:document-rotation="0"
     inkscape:snap-others="false"
     inkscape:snap-global="true"
     inkscape:snap-nodes="false"
     inkscape:bbox-nodes="true"
     inkscape:snap-bbox="true"
     showguides="true"
     inkscape:snap-midpoints="true"
     inkscape:snap-smooth-nodes="true"
     inkscape:snap-intersection-paths="true"
     inkscape:object-paths="true"
     inkscape:showpageshadow="false"
     inkscape:pagecheckerboard="true"
     inkscape:window-maximized="1"
     inkscape:window-y="-8"
     inkscape:window-x="-8"
     inkscape:window-height="716"
     inkscape:window-width="1366"
     units="pt"
     showgrid="false"
     inkscape:current-layer="layer1"
     inkscape:document-units="pt"
     inkscape:cy="52.748859"
     inkscape:cx="52.60274"
     inkscape:zoom="3.2787548"
     inkscape:pageshadow="2"
     inkscape:pageopacity="0.0"
     borderopacity="1.0"
     bordercolor="#666666"
     pagecolor="#ffffff"
     id="base">
    <inkscape:grid
       id="grid1378"
       type="xygrid" />
    <sodipodi:guide
       inkscape:locked="false"
       id="guide1380"
       orientation="78.000048,0"
       position="0.97013831,21.607643" />
    <sodipodi:guide
       inkscape:locked="false"
       id="guide1382"
       orientation="0,78.000005"
       position="0.97013831,0.97013129" />
    <sodipodi:guide
       inkscape:locked="false"
       id="guide1384"
       orientation="-78.000048,0"
       position="21.607639,0.97013129" />
    <sodipodi:guide
       inkscape:locked="false"
       id="guide1386"
       orientation="0,-78.000005"
       position="21.607639,21.607643" />
  </sodipodi:namedview>
  <metadata
     id="metadata828">
    <rdf:RDF>
      <cc:Work
         rdf:about="">
        <dc:format>image/svg+xml</dc:format>
        <dc:type
           rdf:resource="http://purl.org/dc/dcmitype/StillImage" />
        <dc:title></dc:title>
      </cc:Work>
    </rdf:RDF>
  </metadata>
  <g
     transform="translate(0,-274.42223)"
     id="layer1"
     inkscape:groupmode="layer"
     inkscape:label="Icon">
    <g
       transform="matrix(1.2580543,0,0,1.2580543,39.01154,-192.40234)"
       style="display:inline;stroke-width:0.794878"
       id="g919628">
      <path
         sodipodi:nodetypes="cccccccccccccsscc"
         id="path392785"
         d="m -27.134778,384.47062 c 0,0 -0.94297,0.2445 -1.611535,-0.24366 -0.04631,-0.0384 -0.105291,-0.061 -0.169762,-0.0607 -0.145412,5.3e-4 -0.263049,0.11814 -0.263552,0.26355 v 0.88676 c -5.29e-4,0.0654 0.02281,0.12877 0.06615,0.17777 l 0.107487,0.11886 -0.107487,0.11937 c -0.0429,0.0485 -0.06625,0.11096 -0.06615,0.1757 v 0.88883 c 5.3e-4,0.14541 0.11814,0.26303 0.263552,0.26355 h 6.879166 c 0.14618,5.3e-4 0.265119,-0.11789 0.265617,-0.26406 v -0.5917 c 0,-0.61132 -0.06007,-1.25609 -0.408244,-1.77508 -0.34817,-0.51901 -0.990622,-0.85577 -1.973001,-0.85576 -0.925211,10e-6 -1.967951,0.61311 -2.982241,0.89659 z"
         style="color:#000000;fill:#e2f0fa;stroke-width:0.794878;stroke-linecap:round;stroke-linejoin:round;paint-order:markers fill stroke" />
      <path
         id="path1415"
         d="m -15.121094,382.98437 c -3.259103,-0.44512 -5.947265,0.78516 -5.947265,0.78516 a 0.2645835,0.2645835 0 0 0 -0.13086,0.35156 0.2645835,0.2645835 0 0 0 0.34961,0.13086 c 0,0 2.565359,-1.16629 5.65625,-0.74414 a 0.2645835,0.2645835 0 0 0 0.298828,-0.22461 0.2645835,0.2645835 0 0 0 -0.226563,-0.29883 z"
         style="color:#000000;fill:#9ebed1;fill-opacity:1;stroke-width:0.794878;stroke-linecap:round;stroke-linejoin:round;paint-order:markers fill stroke" />
      <path
         sodipodi:nodetypes="ssccccccccccccccs"
         id="path392797"
         d="m -21.892721,384.4298 c -0.34817,0.51899 -0.408244,1.16377 -0.408244,1.77509 v 0.59221 c 5.56e-4,0.14552 0.118545,0.26327 0.264067,0.26355 h 6.880717 c 0.145411,-5.3e-4 0.26304,-0.11814 0.26355,-0.26355 v -0.88884 c 1.14e-4,-0.0647 -0.02325,-0.1272 -0.06615,-0.17569 l -0.107487,-0.11938 0.107487,-0.11885 c 0.04335,-0.049 0.06674,-0.11235 0.06615,-0.17777 4e-6,-0.29949 0,-0.60651 0,-0.9033 0,-0.0514 -0.02175,-0.10053 -0.05271,-0.1416 -0.08701,-0.11659 -0.251837,-0.14106 -0.36897,-0.0548 -0.669512,0.49901 -1.623157,0.25374 -1.623157,0.25374 -1.014291,-0.28348 -2.057031,-0.89659 -2.982247,-0.89658 -0.982383,1e-5 -1.624836,0.33677 -1.973006,0.85577 z"
         style="color:#000000;fill:#e2f0fa;stroke-width:0.794878;stroke-linecap:round;stroke-linejoin:round;paint-order:markers fill stroke" />
      <path
         d="m -15.1691,384.16573 c -0.05072,0.002 -0.101286,0.0188 -0.145211,0.0512 -0.03501,0.0261 -0.07109,0.0497 -0.107487,0.0718 0,0.48868 1e-6,0.97209 0,1.45003 -5.03e-4,0.14542 -0.118139,0.26303 -0.26355,0.26356 h -6.613033 c -0.0017,0.0678 -0.0026,0.13536 -0.0026,0.20257 v 0.59221 c 5.56e-4,0.14552 0.118544,0.26327 0.264067,0.26355 h 6.880717 c 0.145411,-5.3e-4 0.263039,-0.11814 0.26355,-0.26355 v -0.88884 c 1.13e-4,-0.0647 -0.02325,-0.1272 -0.06615,-0.17569 l -0.107487,-0.11938 0.107487,-0.11885 c 0.04335,-0.049 0.06674,-0.11235 0.06615,-0.17777 3e-6,-0.29949 0,-0.60651 0,-0.9033 0,-0.0514 -0.02175,-0.10053 -0.05271,-0.1416 -0.05438,-0.0729 -0.139225,-0.10958 -0.223758,-0.10594 z"
         style="color:#000000;fill:#9ebed1;fill-opacity:1;stroke-width:0.794878;stroke-linecap:round;stroke-linejoin:round;paint-order:markers fill stroke"
         id="path794371" />
      <path
         sodipodi:nodetypes="csccccccccsscccccccc"
         d="m -17.318669,384.35078 c 0.214537,0.0792 0.397634,0.131 0.582406,0.15672 0.135009,0.0188 0.270915,0.0211 0.420632,0.0227 0.297582,0.002 0.552712,-0.0626 0.818039,-0.19791 0.05853,-0.031 0.116625,-0.0649 0.172082,-0.10542 0.04631,-0.0384 0.105027,-0.0607 0.169498,-0.0605 0.145413,5.3e-4 0.263049,0.11814 0.263552,0.26355 v 0.14004 l -0.111107,0.0744 c -0.917068,0.67837 -2.076358,0.3359 -2.076358,0.3359 -1.102374,-0.3081 -2.177338,-0.87695 -2.83962,-0.87695 -0.869698,0 -1.286097,0.25275 -1.53324,0.62115 -0.247142,0.3684 -0.318326,0.90866 -0.318326,1.48053 -5.56e-4,0.14552 -0.118545,0.26327 -0.264067,0.26355 -0.146126,5.3e-4 -0.265048,-0.11742 -0.265617,-0.26355 -0.01293,-0.54788 0.05327,-1.10435 0.290949,-1.57511 0.371368,-0.73459 1.195287,-1.02959 1.909973,-1.05165 0.05875,-0.003 0.118952,-0.004 0.18034,-0.004 0.626439,0.0121 1.217057,0.24809 1.787996,0.46921 0.279819,0.10716 0.568279,0.22276 0.812868,0.30749 z"
         style="color:#000000;fill:#c8dae5;stroke-width:0.794878;stroke-linecap:round;stroke-linejoin:round;paint-order:markers fill stroke"
         id="path128139" />
      <g
         style="fill:#9ebed1;fill-opacity:1;stroke-width:0.794878"
         id="g792795">
        <path
           id="path1399"
           d="m -28.951172,382.98437 a 0.2645835,0.2645835 0 0 0 -0.226562,0.29883 0.2645835,0.2645835 0 0 0 0.298828,0.22461 c 3.09089,-0.42215 5.65625,0.74414 5.65625,0.74414 a 0.2645835,0.2645835 0 0 0 0.349609,-0.13086 0.2645835,0.2645835 0 0 0 -0.130859,-0.35156 c 0,0 -2.688162,-1.23028 -5.947266,-0.78516 z"
           style="color:#000000;fill:#9ebed1;fill-opacity:1;stroke-width:0.794878;stroke-linecap:round;stroke-linejoin:round;paint-order:markers fill stroke" />
      </g>
      <path
         d="m -28.903171,384.16572 c 0.05072,0.002 0.101286,0.0188 0.145211,0.0512 0.03501,0.0261 0.07109,0.0497 0.107487,0.0718 0,0.48868 -10e-7,0.97209 0,1.45003 5.03e-4,0.14542 0.118139,0.26303 0.26355,0.26356 h 6.613033 c 0.0017,0.0678 0.0026,0.13536 0.0026,0.20257 v 0.59221 c -5.56e-4,0.14552 -0.118544,0.26327 -0.264067,0.26355 h -6.880717 c -0.145411,-5.3e-4 -0.263039,-0.11814 -0.26355,-0.26355 v -0.88884 c -1.13e-4,-0.0647 0.02325,-0.1272 0.06615,-0.17569 l 0.107487,-0.11938 -0.107487,-0.11885 c -0.04335,-0.049 -0.06674,-0.11235 -0.06615,-0.17777 -3e-6,-0.29949 0,-0.60651 0,-0.9033 0,-0.0514 0.02175,-0.10053 0.05271,-0.1416 0.05438,-0.0729 0.139225,-0.10958 0.223758,-0.10594 z"
         style="color:#000000;fill:#9ebed1;fill-opacity:1;stroke-width:0.794878;stroke-linecap:round;stroke-linejoin:round;paint-order:markers fill stroke"
         id="path797328" />
      <path
         sodipodi:nodetypes="csccccccccsscccccccc"
         d="m -26.753405,384.35078 c -0.214538,0.0792 -0.397635,0.131 -0.582406,0.15672 -0.135009,0.0188 -0.270915,0.0211 -0.420632,0.0227 -0.297583,0.002 -0.552712,-0.0626 -0.818039,-0.19791 -0.05853,-0.031 -0.116626,-0.0649 -0.172082,-0.10542 -0.04632,-0.0384 -0.105027,-0.0607 -0.169498,-0.0605 -0.145412,5.3e-4 -0.263049,0.11814 -0.263551,0.26355 v 0.14004 l 0.111106,0.0744 c 0.917067,0.67837 2.076358,0.3359 2.076358,0.3359 1.102373,-0.3081 2.177337,-0.87695 2.839619,-0.87695 0.869698,0 1.286098,0.25275 1.53324,0.62115 0.247143,0.3684 0.318327,0.90866 0.318327,1.48053 5.55e-4,0.14552 0.118545,0.26327 0.264066,0.26355 0.146127,5.3e-4 0.265048,-0.11742 0.265617,-0.26355 0.01294,-0.54788 -0.05327,-1.10435 -0.290948,-1.57511 -0.371368,-0.73459 -1.195287,-1.02959 -1.909974,-1.05165 -0.05875,-0.003 -0.118951,-0.004 -0.18034,-0.004 -0.626438,0.0121 -1.217057,0.24809 -1.787995,0.46921 -0.279819,0.10716 -0.56828,0.22276 -0.812868,0.30749 z"
         style="color:#000000;fill:#c8dae5;stroke-width:0.794878;stroke-linecap:round;stroke-linejoin:round;paint-order:markers fill stroke"
         id="path416076" />
      <path
         id="path392809"
         d="m -15.15625,386.53125 a 0.26460996,0.26460996 0 0 0 -0.265625,0.26562 v 1.18165 a 0.26460996,0.26460996 0 0 0 0.265625,0.26562 h 1.056641 a 0.26460996,0.26460996 0 0 0 0.265625,-0.26562 v -1.18165 a 0.26460996,0.26460996 0 0 0 -0.265625,-0.26562 z"
         style="color:#000000;fill:#1f8b95;stroke-width:0.794878;stroke-linecap:round;stroke-linejoin:round;paint-order:markers fill stroke" />
      <path
         transform="matrix(0.26458334,0,0,0.26458334,0,280.06666)"
         d="m -57.283203,402.38672 a 1.0001006,1.0001006 0 0 0 -1.003906,1.0039 v 4.46485 a 1.0001006,1.0001006 0 0 0 1.003906,1.00391 h 2.996094 v -6.47266 z"
         style="color:#000000;fill:#0a6a6b;fill-opacity:1;stroke-width:3.00427;stroke-linecap:round;stroke-linejoin:round;paint-order:markers fill stroke"
         id="path770784" />
      <path
         id="path392815"
         d="m -22.564453,382.42383 a 0.26460996,0.26460996 0 0 0 -0.238281,0.38281 l 0.265625,0.5293 a 0.26460996,0.26460996 0 0 0 0.236328,0.14648 h 0.529297 a 0.26460996,0.26460996 0 0 0 0.236328,-0.14648 l 0.265625,-0.5293 a 0.26460996,0.26460996 0 0 0 -0.238281,-0.38281 z"
         style="color:#000000;fill:#4f697d;stroke-width:0.794878;stroke-linecap:round;stroke-linejoin:round;stroke-miterlimit:10" />
      <path
         id="path392821"
         d="m -23.623047,379.77734 a 0.26460996,0.26460996 0 0 0 -0.265625,0.26368 v 1.58789 c -1e-6,0.4089 0.162038,0.80267 0.451172,1.09179 l 0.15625,0.1543 a 0.26460996,0.26460996 0 0 0 0.1875,0.0781 h 2.115234 a 0.26460996,0.26460996 0 0 0 0.1875,-0.0781 l 0.154297,-0.1543 c 0.289133,-0.28912 0.453125,-0.6829 0.453125,-1.09179 v -1.58789 a 0.26460996,0.26460996 0 0 0 -0.265625,-0.26368 z"
         style="color:#000000;fill:#e2f0fa;stroke-width:0.794878;stroke-linecap:round;stroke-linejoin:round;stroke-miterlimit:10" />
      <path
         d="m -23.622848,379.77737 a 0.26460996,0.26460996 0 0 0 -0.265617,0.26355 v 0.26562 h 2.9099 a 0.26460996,0.26460996 0 0 1 0.265617,0.26355 v 1.58801 c 0,0.2801 -0.07666,0.55301 -0.218075,0.79014 a 0.26460996,0.26460996 0 0 0 0.140044,-0.0734 l 0.154512,-0.154 c 0.289133,-0.28912 0.452686,-0.68303 0.452686,-1.09192 v -1.58802 a 0.26460996,0.26460996 0 0 0 -0.265617,-0.26355 z"
         style="color:#000000;fill:#c8dae5;fill-opacity:1;stroke-width:0.794878;stroke-linecap:round;stroke-linejoin:round;stroke-miterlimit:10"
         id="path757080" />
      <path
         id="path311812"
         d="m -22.037109,371.83984 c -2.042619,0 -3.703126,1.66246 -3.703125,3.70508 8.26e-4,0.96851 0.379994,1.8847 1.037109,2.56641 0.266253,0.27621 0.550781,0.81447 0.550781,1.13672 v 1.05859 a 0.26460996,0.26460996 0 0 0 0.07617,0.1875 l 0.265625,0.26367 a 0.26460996,0.26460996 0 0 0 0.1875,0.0781 h 3.173828 a 0.26460996,0.26460996 0 0 0 0.1875,-0.0781 l 0.265625,-0.26367 a 0.26460996,0.26460996 0 0 0 0.07617,-0.1875 v -1.05859 c 0,-0.32225 0.284523,-0.8605 0.550781,-1.13672 0.657118,-0.68171 1.036284,-1.5979 1.03711,-2.56641 2e-6,-2.04262 -1.662459,-3.70508 -3.705078,-3.70508 z"
         style="color:#000000;fill:#fec872;fill-opacity:1;stroke-width:0.794878;stroke-linecap:round;stroke-linejoin:round;stroke-miterlimit:10" />
      <path
         transform="matrix(0.26458334,0,0,0.26458334,0,280.06666)"
         d="m -86.287109,372.85742 a 1.0001006,1.0001006 0 0 0 -0.945313,1.31446 l 0.945313,2.8496 v 1.8379 h 6.001953 v -1.8379 l 0.945312,-2.8496 a 1.0001006,1.0001006 0 0 0 -0.945312,-1.31446 z"
         style="color:#000000;fill:#fd8c35;fill-opacity:1;stroke-width:3.00427;stroke-linecap:round;stroke-linejoin:round;stroke-miterlimit:10"
         id="path392829" />
      <path
         transform="matrix(0.26458334,0,0,0.26458334,0,280.06666)"
         d="m -83.289062,350.85938 c -0.856283,0 -1.6338,0.40158 -2.244141,0.98242 -0.610345,0.58087 -1.091924,1.34355 -1.492188,2.24414 -0.800526,1.80121 -1.261718,4.17196 -1.261718,6.77734 0,2.60538 0.461192,4.96832 1.261718,6.76953 0.400264,0.90059 0.881843,1.66331 1.492188,2.24414 0.610341,0.58084 1.387858,0.98047 2.244141,0.98047 0.856282,0 1.639655,-0.39963 2.25,-0.98047 0.610344,-0.58083 1.091924,-1.34355 1.492187,-2.24414 0.800527,-1.80121 1.261719,-4.16415 1.261719,-6.76953 0,-2.60538 -0.461192,-4.97613 -1.261719,-6.77734 -0.400263,-0.90059 -0.881843,-1.66327 -1.492187,-2.24414 -0.610345,-0.58084 -1.393718,-0.98242 -2.25,-0.98242 z m -0.04688,2.00195 c 0.01569,-8e-4 0.03136,0 0.04688,0 0.248277,0 0.524333,0.0978 0.871093,0.42773 0.346772,0.32996 0.723283,0.88129 1.046875,1.60938 0.647188,1.45617 1.085934,3.59965 1.085938,5.96484 -4e-6,2.36519 -0.43875,4.50089 -1.085938,5.95703 -0.323603,0.72809 -0.700111,1.27939 -1.046875,1.60938 -0.346771,0.32995 -0.622809,0.42773 -0.871093,0.42773 -0.248278,0 -0.518471,-0.0978 -0.865235,-0.42773 -0.346772,-0.32996 -0.723279,-0.88129 -1.046875,-1.60938 -0.647187,-1.45614 -1.085937,-3.59184 -1.085937,-5.95703 0,-2.36519 0.43875,-4.50867 1.085937,-5.96484 0.323603,-0.72809 0.700111,-1.27939 1.046875,-1.60938 0.325099,-0.30933 0.582994,-0.41573 0.818359,-0.42773 z"
         style="color:#000000;fill:#e2f0fa;stroke-width:3.00427;stroke-linecap:round;stroke-linejoin:round;stroke-miterlimit:10"
         id="path9171" />
      <path
         sodipodi:nodetypes="ccccscccsssscc"
         id="path393333"
         d="m -21.262037,375.99139 c -0.117931,0.0827 -0.244265,0.16269 -0.376635,0.23911 -0.541944,0.31289 -1.090486,0.49667 -1.509765,0.54101 -0.20964,0.0222 -0.386323,0.008 -0.507813,-0.0273 -0.12149,-0.0358 -0.180045,-0.0857 -0.212891,-0.14258 -0.03838,-0.0665 -0.05083,-0.16284 0.002,-0.32031 0.05279,-0.15747 0.173741,-0.35829 0.353515,-0.56445 l -0.398483,-0.34772 c -0.212655,0.24387 -0.370772,0.49266 -0.455078,0.74414 -0.08431,0.25148 -0.09331,0.52463 0.03906,0.75391 0.113279,0.1962 0.309601,0.32175 0.523438,0.38476 0.213836,0.063 0.453581,0.0723 0.71289,0.0449 0.515556,-0.0545 1.115494,-0.2603 1.708997,-0.60133 0.0654,-0.24428 0.09678,-0.47358 0.120765,-0.70414 z"
         style="color:#000000;fill:#8ed1f7;stroke-width:0.794878;stroke-linecap:round;stroke-linejoin:round;stroke-miterlimit:10" />
      <path
         sodipodi:nodetypes="ccccsccccssscccc"
         id="ellipse10329"
         d="m -22.811517,375.0981 c 0.118602,-0.0833 0.244929,-0.16393 0.37792,-0.24072 0.541945,-0.31289 1.090487,-0.49667 1.509766,-0.54101 0.209639,-0.0222 0.386323,-0.008 0.507812,0.0273 0.12149,0.0358 0.180045,0.0857 0.212891,0.14258 0.03821,0.0662 0.05002,0.162 -0.002,0.31836 -0.05197,0.15636 -0.169718,0.35545 -0.347656,0.56054 -0.0959,0.11006 -0.08454,0.277 0.02539,0.37305 0.11057,0.0954 0.277546,0.0832 0.373047,-0.0273 0.210723,-0.24288 0.367935,-0.48983 0.451172,-0.74024 0.08324,-0.2504 0.09076,-0.52176 -0.04102,-0.75 -0.113278,-0.1962 -0.3096,-0.32175 -0.523437,-0.38476 -0.213837,-0.063 -0.453581,-0.0723 -0.712891,-0.0449 l 5.4e-5,2e-5 c -0.516533,0.0546 -1.114687,0.26108 -1.7093,0.60327 -0.06728,0.22484 -0.09405,0.46736 -0.121748,0.70381 z"
         style="color:#000000;fill:#8ed1f7;stroke-width:0.794878;stroke-linecap:round;stroke-linejoin:round;stroke-miterlimit:10" />
      <path
         sodipodi:nodetypes="ccssccccssssccc"
         id="path393337"
         d="m -22.039035,374.65218 c 0.301216,0.1456 0.596262,0.30719 0.870113,0.51286 0.243292,0.18025 0.450345,0.36839 0.610375,0.55178 0.179987,0.20628 0.298696,0.40687 0.351563,0.56445 0.05287,0.15758 0.04231,0.25381 0.0039,0.32031 -0.03837,0.0665 -0.11657,0.12518 -0.279297,0.15821 -0.100454,0.0204 -0.228362,0.0267 -0.374153,0.0162 -0.04232,0.17039 -0.09997,0.34224 -0.170887,0.51563 0.23375,0.0294 0.451796,0.0281 0.650509,-0.0123 0.259906,-0.0528 0.500455,-0.18288 0.632812,-0.41211 0.132438,-0.22938 0.123474,-0.50231 0.03906,-0.75391 -0.08441,-0.2516 -0.242193,-0.50015 -0.455078,-0.74414 -0.188959,-0.21654 -0.422134,-0.42957 -0.692406,-0.62891 -0.169634,-0.12678 -0.353524,-0.23707 -0.527334,-0.33596 -0.230032,0.0656 -0.447733,0.15154 -0.659177,0.24789 z"
         style="color:#000000;fill:#4895ef;stroke-width:0.794878;stroke-linecap:round;stroke-linejoin:round;stroke-miterlimit:10" />
      <path
         sodipodi:nodetypes="ccssssccccsscc"
         id="ellipse10331"
         d="m -22.037416,376.43802 c -0.131077,-0.0613 -0.263599,-0.13102 -0.396182,-0.20757 -0.541945,-0.31289 -0.972658,-0.69423 -1.220703,-1.03516 -0.124022,-0.17046 -0.200726,-0.33001 -0.230469,-0.45312 -0.02974,-0.12311 -0.01722,-0.19897 0.01563,-0.25586 0.03829,-0.0663 0.115362,-0.12511 0.277344,-0.15821 0.100873,-0.0206 0.229189,-0.0274 0.376224,-0.017 0.04147,-0.17566 0.103362,-0.34566 0.170736,-0.51584 -0.234302,-0.0292 -0.474055,-0.0117 -0.65243,0.0133 -0.259112,0.053 -0.498833,0.1834 -0.630859,0.41211 -0.113279,0.19622 -0.124616,0.42785 -0.07227,0.64454 0.05235,0.2167 0.164951,0.42977 0.31836,0.64063 0.305137,0.4194 0.78253,0.83437 1.374985,1.17793 0.245487,-0.0565 0.46908,-0.15797 0.669634,-0.24575 z"
         style="color:#000000;fill:#4895ef;stroke-width:0.794878;stroke-linecap:round;stroke-linejoin:round;stroke-miterlimit:10" />
      <path
         transform="matrix(0.26458334,0,0,0.26458334,0,280.06666)"
         d="m -90.287109,382.86133 v 0.99609 c -10e-7,0.33872 0.02849,0.67425 0.08594,1.00391 h 13.830078 c 0.058,-0.32966 0.08594,-0.6652 0.08594,-1.00391 v -0.99609 z"
         style="color:#000000;fill:#4f697d;fill-opacity:1;stroke-width:3.00427;stroke-linecap:round;stroke-linejoin:round;stroke-miterlimit:10"
         id="path31340" />
      <path
         id="path36659"
         d="m -22.036052,375.28005 a 0.2645835,0.2645835 0 0 0 -0.265625,0.26368 0.2645835,0.2645835 0 0 0 0.265625,0.26562 0.2645835,0.2645835 0 0 0 0.263672,-0.26562 0.2645835,0.2645835 0 0 0 -0.263672,-0.26368 z"
         style="color:#000000;fill:#ec7523;fill-opacity:1;stroke-width:0.794878;stroke-linecap:round;stroke-linejoin:round;stroke-miterlimit:10" />
      <path
         id="path37383"
         d="m -17.273437,375.01562 a 0.2645835,0.2645835 0 0 0 -0.265625,0.26368 0.2645835,0.2645835 0 0 0 0.265625,0.26562 h 0.263671 a 0.2645835,0.2645835 0 0 0 0.265625,-0.26562 0.2645835,0.2645835 0 0 0 -0.265625,-0.26368 z"
         style="color:#000000;fill:#2f3f4b;fill-opacity:1;stroke-width:0.794878;stroke-linecap:round;stroke-linejoin:round;stroke-miterlimit:10" />
      <path
         id="path37385"
         d="m -16.412109,373.35352 a 0.2645835,0.2645835 0 0 0 -0.199219,0.0273 l -1.058594,0.61133 a 0.2645835,0.2645835 0 0 0 -0.09766,0.36133 0.2645835,0.2645835 0 0 0 0.361328,0.0976 l 1.058594,-0.61133 a 0.2645835,0.2645835 0 0 0 0.09766,-0.36132 0.2645835,0.2645835 0 0 0 -0.162109,-0.125 z"
         style="color:#000000;fill:#4f697d;stroke-width:0.794878;stroke-linecap:round;stroke-linejoin:round;stroke-miterlimit:10" />
      <path
         id="path37387"
         d="m -17.539062,372.63281 a 0.2645835,0.2645835 0 0 0 -0.185547,0.0781 l -0.265625,0.26562 a 0.2645835,0.2645835 0 0 0 0,0.37305 0.2645835,0.2645835 0 0 0 0.375,0 l 0.263672,-0.26367 a 0.2645835,0.2645835 0 0 0 0,-0.375 0.2645835,0.2645835 0 0 0 -0.1875,-0.0781 z"
         style="color:#000000;fill:#2f3f4b;fill-opacity:1;stroke-width:0.794878;stroke-linecap:round;stroke-linejoin:round;stroke-miterlimit:10" />
      <path
         id="path37469"
         d="m -17.607422,376.08203 a 0.2645835,0.2645835 0 0 0 -0.160156,0.12305 0.2645835,0.2645835 0 0 0 0.09766,0.36133 l 1.058594,0.61132 a 0.2645835,0.2645835 0 0 0 0.361328,-0.0976 0.2645835,0.2645835 0 0 0 -0.09766,-0.36133 l -1.058594,-0.60938 a 0.2645835,0.2645835 0 0 0 -0.201172,-0.0273 z"
         style="color:#000000;fill:#4f697d;stroke-width:0.794878;stroke-linecap:round;stroke-linejoin:round;stroke-miterlimit:10" />
      <path
         id="path37471"
         d="m -17.802734,377.13086 a 0.2645835,0.2645835 0 0 0 -0.1875,0.0781 0.2645835,0.2645835 0 0 0 0,0.375 l 0.265625,0.26368 a 0.2645835,0.2645835 0 0 0 0.373047,0 0.2645835,0.2645835 0 0 0 0,-0.375 l -0.263672,-0.26368 a 0.2645835,0.2645835 0 0 0 -0.1875,-0.0781 z"
         style="color:#000000;fill:#2f3f4b;fill-opacity:1;stroke-width:0.794878;stroke-linecap:round;stroke-linejoin:round;stroke-miterlimit:10" />
      <path
         id="path37473"
         d="m -27.0625,375.01562 a 0.2645835,0.2645835 0 0 0 -0.265625,0.26368 0.2645835,0.2645835 0 0 0 0.265625,0.26562 h 0.263672 a 0.2645835,0.2645835 0 0 0 0.265625,-0.26562 0.2645835,0.2645835 0 0 0 -0.265625,-0.26368 z"
         style="color:#000000;fill:#2f3f4b;fill-opacity:1;stroke-width:0.794878;stroke-linecap:round;stroke-linejoin:round;stroke-miterlimit:10" />
      <path
         id="path37475"
         d="m -27.660156,373.35352 a 0.2645835,0.2645835 0 0 0 -0.16211,0.125 0.2645835,0.2645835 0 0 0 0.09766,0.36132 l 1.058593,0.61133 a 0.2645835,0.2645835 0 0 0 0.361329,-0.0976 0.2645835,0.2645835 0 0 0 -0.09766,-0.36133 l -1.058593,-0.61133 a 0.2645835,0.2645835 0 0 0 -0.199219,-0.0273 z"
         style="color:#000000;fill:#4f697d;stroke-width:0.794878;stroke-linecap:round;stroke-linejoin:round;stroke-miterlimit:10" />
      <path
         id="path37477"
         d="m -26.533203,372.63281 a 0.2645835,0.2645835 0 0 0 -0.1875,0.0781 0.2645835,0.2645835 0 0 0 0,0.375 l 0.263672,0.26367 a 0.2645835,0.2645835 0 0 0 0.375,0 0.2645835,0.2645835 0 0 0 0,-0.37305 l -0.265625,-0.26562 a 0.2645835,0.2645835 0 0 0 -0.185547,-0.0781 z"
         style="color:#000000;fill:#2f3f4b;fill-opacity:1;stroke-width:0.794878;stroke-linecap:round;stroke-linejoin:round;stroke-miterlimit:10" />
      <path
         id="path37479"
         d="m -26.464844,376.08203 a 0.2645835,0.2645835 0 0 0 -0.201172,0.0273 l -1.058593,0.60938 a 0.2645835,0.2645835 0 0 0 -0.09766,0.36133 0.2645835,0.2645835 0 0 0 0.361329,0.0976 l 1.058593,-0.61132 a 0.2645835,0.2645835 0 0 0 0.09766,-0.36133 0.2645835,0.2645835 0 0 0 -0.160157,-0.12305 z"
         style="color:#000000;fill:#4f697d;stroke-width:0.794878;stroke-linecap:round;stroke-linejoin:round;stroke-miterlimit:10" />
      <path
         id="path37481"
         d="m -26.269531,377.13086 a 0.2645835,0.2645835 0 0 0 -0.1875,0.0781 l -0.263672,0.26368 a 0.2645835,0.2645835 0 0 0 0,0.375 0.2645835,0.2645835 0 0 0 0.373047,0 l 0.265625,-0.26368 a 0.2645835,0.2645835 0 0 0 0,-0.375 0.2645835,0.2645835 0 0 0 -0.1875,-0.0781 z"
         style="color:#000000;fill:#2f3f4b;fill-opacity:1;stroke-width:0.794878;stroke-linecap:round;stroke-linejoin:round;stroke-miterlimit:10" />
      <path
         id="path392897"
         d="m -29.974609,386.53125 a 0.26460996,0.26460996 0 0 0 -0.263672,0.26562 v 1.18165 a 0.26460996,0.26460996 0 0 0 0.263672,0.26562 h 1.058593 a 0.26460996,0.26460996 0 0 0 0.265625,-0.26562 v -1.18165 a 0.26460996,0.26460996 0 0 0 -0.265625,-0.26562 z"
         style="color:#000000;fill:#1f8b95;stroke-width:0.794878;stroke-linecap:round;stroke-linejoin:round;paint-order:markers fill stroke" />
      <path
         d="m -28.916007,386.53148 a 0.26460996,0.26460996 0 0 1 0.265616,0.26562 v 1.18132 a 0.26460996,0.26460996 0 0 1 -0.265616,0.26562 h -0.792717 v -1.71256 z"
         style="color:#000000;fill:#0a6a6b;fill-opacity:1;stroke-width:0.794878;stroke-linecap:round;stroke-linejoin:round;paint-order:markers fill stroke"
         id="path780157" />
      <path
         sodipodi:nodetypes="ccccc"
         transform="matrix(0.26458334,0,0,0.26458334,0,280.06666)"
         d="m -110.28516,402.38672 v 6.47266 c 17.99935,0 35.998701,0 53.998051,0 v -6.47266 c -17.99935,0 -35.998701,0 -53.998051,0 z"
         style="color:#000000;fill:#30b1ad;stroke-width:3.00427;stroke-linecap:round;stroke-linejoin:round;paint-order:markers fill stroke"
         id="path392903" />
      <path
         d="m -29.179616,387.71487 v 0.52917 h 14.286985 v -0.52917 z"
         style="color:#000000;fill:#1f8b95;fill-opacity:1;stroke-width:0.794878;stroke-linecap:round;stroke-linejoin:round;paint-order:markers fill stroke"
         id="path762158" />
      <path
         id="path1397"
         d="m -25.505859,385.05469 a 0.2645835,0.2645835 0 0 0 -0.232422,0.29101 0.2645835,0.2645835 0 0 0 0.291015,0.23438 c 1.281301,-0.14324 2.085261,0.0713 2.566407,0.30664 0.481145,0.23533 0.625,0.46484 0.625,0.46484 a 0.2645835,0.2645835 0 0 0 0.367187,0.0723 0.2645835,0.2645835 0 0 0 0.07227,-0.36719 c 0,0 -0.254844,-0.36222 -0.832031,-0.64453 -0.577188,-0.28231 -1.492892,-0.50997 -2.857422,-0.35742 z"
         style="color:#000000;fill:#9ebed1;fill-opacity:1;stroke-width:0.794878;stroke-linecap:round;stroke-linejoin:round;paint-order:markers fill stroke" />
      <path
         id="path1413"
         d="m -18.566406,385.05469 c -1.364531,-0.15255 -2.282188,0.0751 -2.859375,0.35742 -0.577187,0.28231 -0.830078,0.64453 -0.830078,0.64453 a 0.2645835,0.2645835 0 0 0 0.07227,0.36719 0.2645835,0.2645835 0 0 0 0.367188,-0.0723 c 0,0 0.143854,-0.22951 0.625,-0.46484 0.481145,-0.23534 1.283152,-0.44988 2.564453,-0.30664 a 0.2645835,0.2645835 0 0 0 0.292969,-0.23438 0.2645835,0.2645835 0 0 0 -0.232422,-0.29101 z"
         style="color:#000000;fill:#9ebed1;fill-opacity:1;stroke-width:0.794878;stroke-linecap:round;stroke-linejoin:round;paint-order:markers fill stroke" />
      <path
         id="path392939"
         d="m -22.035156,385.94727 c -0.633636,-0.0346 -1.058594,0.40116 -1.058594,0.8496 -1e-6,0.37469 0.157306,0.71272 0.349609,0.97071 0.09615,0.12899 0.201822,0.23832 0.314454,0.32226 0.112631,0.084 0.227832,0.1543 0.392578,0.1543 0.164745,0 0.281899,-0.0704 0.394531,-0.1543 0.112632,-0.0839 0.218301,-0.19327 0.314453,-0.32226 0.192304,-0.25799 0.34961,-0.59602 0.349609,-0.97071 0,-0.44792 -0.424243,-0.88306 -1.05664,-0.8496 z"
         style="color:#000000;fill:#4f697d;stroke-width:0.794878;stroke-linecap:round;stroke-linejoin:round;paint-order:markers fill stroke" />
      <path
         d="m -22.060547,386.41992 c -0.406404,-0.0222 -0.560547,0.22711 -0.560547,0.37696 0,0.24238 0.107974,0.48909 0.25586,0.6875 0.07346,0.0985 0.150218,0.17548 0.21875,0.22656 0.09013,0.0672 0.07909,0.0605 0.109375,0.0605 0.03009,0 0.02304,0.005 0.111328,-0.0605 0.06839,-0.051 0.145256,-0.12797 0.21875,-0.22656 0.147889,-0.19841 0.25586,-0.44511 0.255859,-0.6875 0,-0.14948 -0.153252,-0.3984 -0.558594,-0.37696 a 0.47271913,0.47271913 0 0 1 -0.05078,0 z"
         style="fill:#2f3f4b;fill-opacity:1;stroke-width:0.794878;stroke-linecap:round;stroke-linejoin:round;paint-order:markers fill stroke"
         id="path801326" />
      <path
         sodipodi:nodetypes="cccccccccccscccscccccc"
         d="m -21.469326,387.9357 c -0.144483,0.13142 -0.270664,0.24895 -0.452186,0.29625 -0.01794,0.004 -0.03663,0.007 -0.05581,0.009 h -0.118602 c -0.01918,-0.002 -0.03787,-0.005 -0.05581,-0.009 -0.181522,-0.0473 -0.307703,-0.16483 -0.452186,-0.29625 l -0.0677,-0.075 c -0.188615,-0.21125 -0.2979,-0.4593 -0.38089,-0.72366 -0.03282,-0.11047 -0.04245,-0.22699 -0.04245,-0.33942 0,-0.0903 0.01743,-0.18011 0.05013,-0.26562 h 0.303689 a 0.17535141,0.17535141 45 0 1 0.175351,0.17535 v 0.0903 c 0,0.21691 0.106005,0.46851 0.24443,0.65422 0.08712,0.12806 0.284736,0.25786 0.284736,0.25786 0,0 0.197616,-0.1298 0.284736,-0.25786 0.138425,-0.18571 0.24443,-0.43731 0.24443,-0.65422 v -0.0903 a 0.17535141,0.17535141 135 0 1 0.175351,-0.17535 h 0.303689 c 0.0327,0.0855 0.05013,0.17532 0.05013,0.26562 0,0.11243 -0.0096,0.22895 -0.04245,0.33942 -0.08299,0.26436 -0.192275,0.51241 -0.38089,0.72366 z"
         style="color:#000000;fill:#1f8b95;stroke-width:0.794878;stroke-linecap:round;stroke-linejoin:round;paint-order:markers fill stroke"
         id="path135091" />
      <path
         sodipodi:nodetypes="cscsccc"
         d="m -18.332215,375.54507 c 2e-6,-2.04262 -1.662064,-3.7052 -3.704683,-3.7052 -1.154766,0 -2.187478,0.53122 -2.867009,1.36219 0.637814,-0.52068 1.452067,-0.83302 2.337842,-0.83302 2.042619,0 3.704685,1.66258 3.704684,3.7052 -6.09e-4,0.71731 -0.208775,1.40583 -0.54583,2.01439 0.694968,-0.65902 1.07417,-1.57505 1.074996,-2.54356 z"
         style="color:#000000;fill:#fd8c35;fill-opacity:1;stroke-width:0.794878;stroke-linecap:round;stroke-linejoin:round;stroke-miterlimit:10"
         id="path709451" />
      <path
         d="m -22.830131,378.71852 a 0.26460996,0.26460996 0 0 0 -0.250114,0.34779 l 0.05994,0.18138 h 1.24902 a 0.26460996,0.26460996 0 0 1 0.250113,0.34778 l -0.235644,0.71107 h 0.514697 v -0.48628 l 0.250114,-0.75395 a 0.26460996,0.26460996 0 0 0 -0.250114,-0.34779 z"
         style="color:#000000;fill:#ec7523;fill-opacity:1;stroke-width:0.794878;stroke-linecap:round;stroke-linejoin:round;stroke-miterlimit:10"
         id="path731663" />
      <path
         transform="matrix(0.26458334,0,0,0.26458334,0,280.06666)"
         d="m -78.285156,382.86133 v 2 h 1.912109 c 0.0078,-0.0444 0.01472,-0.0882 0.02148,-0.13281 4.95e-4,-0.003 0.0015,-0.006 0.002,-0.01 5.84e-4,-0.004 0.0014,-0.008 0.002,-0.0117 0.0064,-0.0434 0.01214,-0.0873 0.01758,-0.13086 0.0089,-0.0709 0.01719,-0.14151 0.02344,-0.21289 8.83e-4,-0.0104 0.0011,-0.0209 0.002,-0.0312 0.0049,-0.0617 0.0088,-0.12355 0.01172,-0.18555 5.84e-4,-0.0117 0.0014,-0.0234 0.002,-0.0351 4.07e-4,-0.01 -3.59e-4,-0.0196 0,-0.0293 0.0028,-0.0746 0.0059,-0.1497 0.0059,-0.22461 v -0.99609 z"
         style="color:#000000;fill:#2f3f4b;fill-opacity:1;stroke-width:3.00427;stroke-linecap:round;stroke-linejoin:round;stroke-miterlimit:10"
         id="path813987" />
    </g>
  </g>
</svg>
